<?xml version="1.0" encoding="UTF-8" standalone="no"?>
<!DOCTYPE svg PUBLIC "-//W3C//DTD SVG 1.1//EN"
 "http://www.w3.org/Graphics/SVG/1.1/DTD/svg11.dtd">
<!-- Generated by graphviz version 14.0.1 (0)
 -->
<!-- Title: backend Pages: 1 -->
<svg width="619pt" height="210pt"
 viewBox="0.00 0.00 619.00 210.00" xmlns="http://www.w3.org/2000/svg" xmlns:xlink="http://www.w3.org/1999/xlink">
<g id="graph0" class="graph" transform="scale(1 1) rotate(0) translate(4 206)">
<title>backend</title>
<polygon fill="#0d0f14" stroke="none" points="-4,4 -4,-206 615.09,-206 615.09,4 -4,4"/>
<text xml:space="preserve" text-anchor="middle" x="305.55" y="-186.8" font-family="JetBrains Mono, monospace" font-size="14.00" fill="#c8d0e0">Backend Services Epic</text>
<g id="clust1" class="cluster">
<title>cluster_be_data</title>
<g id="a_clust1"><a xlink:href="be_data.html" xlink:title="Data layer" target="_self">
<polygon fill="#13161e" stroke="#4af0c4" points="235.89,-8 235.89,-136 603.09,-136 603.09,-8 235.89,-8"/>
<text xml:space="preserve" text-anchor="middle" x="419.49" y="-120.8" font-family="JetBrains Mono, monospace" font-size="14.00" fill="#c8d0e0">Data layer</text>
</a>
</g>
</g>
<!-- be_auth -->
<g id="be_auth" class="node">
<title>be_auth</title>
<g id="a_be_auth"><a xlink:title="JWT + OAuth2 complete">
<polygon fill="#0f2e22" stroke="#3dcf8e" points="71.02,-124 0,-124 0,-88 71.02,-88 71.02,-124"/>
<text xml:space="preserve" text-anchor="middle" x="35.51" y="-103" font-family="JetBrains Mono, monospace" font-size="10.00" fill="#3dcf8e">Auth service</text>
</a>
</g>
</g>
<!-- be_api -->
<g id="be_api" class="node">
<title>be_api</title>
<g id="a_be_api"><a xlink:title="50% endpoints done">
<polygon fill="#092820" stroke="#4af0c4" points="207.89,-124 107.02,-124 107.02,-88 207.89,-88 207.89,-124"/>
<text xml:space="preserve" text-anchor="middle" x="157.46" y="-103" font-family="JetBrains Mono, monospace" font-size="10.00" fill="#4af0c4">REST API gateway</text>
</a>
</g>
</g>
<!-- be_auth&#45;&gt;be_api -->
<g id="edge4" class="edge">
<title>be_auth&#45;&gt;be_api</title>
<path fill="none" stroke="#c8d0e0" d="M71.21,-106C78.82,-106 87.09,-106 95.4,-106"/>
<polygon fill="#c8d0e0" stroke="#c8d0e0" points="95.16,-109.5 105.16,-106 95.16,-102.5 95.16,-109.5"/>
</g>
<!-- be_grpc -->
<g id="be_grpc" class="node">
<title>be_grpc</title>
<g id="a_be_grpc"><a xlink:title="Schema defined, impl pending">
<polygon fill="#151b29" stroke="#3a4460" points="343.26,-180 246.11,-180 246.11,-144 343.26,-144 343.26,-180"/>
<text xml:space="preserve" text-anchor="middle" x="294.69" y="-159" font-family="JetBrains Mono, monospace" font-size="10.00" fill="#7b8baa">gRPC internal bus</text>
</a>
</g>
</g>
<!-- be_api&#45;&gt;be_grpc -->
<g id="edge5" class="edge">
<title>be_api&#45;&gt;be_grpc</title>
<path fill="none" stroke="#c8d0e0" d="M199.29,-124.38C209.03,-128.67 219.54,-133.21 235.21,-139.66"/>
<polygon fill="#c8d0e0" stroke="#c8d0e0" points="233.7,-142.82 244.28,-143.36 236.35,-136.34 233.7,-142.82"/>
</g>
<!-- be_data -->
<!-- be_api&#45;&gt;be_data -->
<g id="edge6" class="edge">
<title>be_api&#45;&gt;be_data</title>
<path fill="none" stroke="#c8d0e0" d="M184.54,-87.7C196.21,-80.18 210.62,-71.74 225.24,-65.3"/>
<polygon fill="#c8d0e0" stroke="#c8d0e0" points="226.53,-68.55 234.49,-61.57 223.91,-62.06 226.53,-68.55"/>
</g>
<!-- db_schema -->
<g id="db_schema" class="node">
<title>db_schema</title>
<g id="a_db_schema"><a xlink:title="Alembic, 12 migrations">
<polygon fill="#0f2e22" stroke="#3dcf8e" points="345.48,-106 243.89,-106 243.89,-70 345.48,-70 345.48,-106"/>
<text xml:space="preserve" text-anchor="middle" x="294.69" y="-85" font-family="JetBrains Mono, monospace" font-size="10.00" fill="#3dcf8e">Schema migrations</text>
</a>
</g>
</g>
<!-- db_models -->
<g id="db_models" class="node">
<title>db_models</title>
<g id="a_db_models"><a xlink:title="SQLAlchemy models">
<polygon fill="#0f2e22" stroke="#3dcf8e" points="455.83,-106 381.48,-106 381.48,-70 455.83,-70 455.83,-106"/>
<text xml:space="preserve" text-anchor="middle" x="418.66" y="-85" font-family="JetBrains Mono, monospace" font-size="10.00" fill="#3dcf8e">ORM models</text>
</a>
</g>
</g>
<!-- db_schema&#45;&gt;db_models -->
<g id="edge1" class="edge">
<title>db_schema&#45;&gt;db_models</title>
<path fill="none" stroke="#c8d0e0" d="M345.65,-88C353.61,-88 361.82,-88 369.73,-88"/>
<polygon fill="#c8d0e0" stroke="#c8d0e0" points="369.51,-91.5 379.51,-88 369.51,-84.5 369.51,-91.5"/>
</g>
<!-- db_cache -->
<g id="db_cache" class="node">
<title>db_cache</title>
<g id="a_db_cache"><a xlink:title="TTL strategy in review">
<polygon fill="#092820" stroke="#4af0c4" points="595.09,-52 491.83,-52 491.83,-16 595.09,-16 595.09,-52"/>
<text xml:space="preserve" text-anchor="middle" x="543.46" y="-31" font-family="JetBrains Mono, monospace" font-size="10.00" fill="#4af0c4">Redis caching layer</text>
</a>
</g>
</g>
<!-- db_models&#45;&gt;db_cache -->
<g id="edge2" class="edge">
<title>db_models&#45;&gt;db_cache</title>
<path fill="none" stroke="#c8d0e0" d="M456.17,-71.94C466.89,-67.23 478.82,-61.98 490.32,-56.93"/>
<polygon fill="#c8d0e0" stroke="#c8d0e0" points="491.57,-60.2 499.31,-52.97 488.75,-53.79 491.57,-60.2"/>
</g>
<!-- db_replica -->
<g id="db_replica" class="node">
<title>db_replica</title>
<g id="a_db_replica"><a xlink:title="DBA approval pending">
<polygon fill="#2a1212" stroke="#f06a6a" points="582.03,-106 504.89,-106 504.89,-70 582.03,-70 582.03,-106"/>
<text xml:space="preserve" text-anchor="middle" x="543.46" y="-85" font-family="JetBrains Mono, monospace" font-size="10.00" fill="#f06a6a">Read replicas</text>
</a>
</g>
</g>
<!-- db_models&#45;&gt;db_replica -->
<g id="edge3" class="edge">
<title>db_models&#45;&gt;db_replica</title>
<path fill="none" stroke="#c8d0e0" d="M456.17,-88C467.86,-88 481,-88 493.44,-88"/>
<polygon fill="#c8d0e0" stroke="#c8d0e0" points="493.08,-91.5 503.08,-88 493.08,-84.5 493.08,-91.5"/>
</g>
</g>
</svg>
