<?xml version="1.0" encoding="UTF-8" standalone="no"?>
<!DOCTYPE svg PUBLIC "-//W3C//DTD SVG 1.1//EN"
 "http://www.w3.org/Graphics/SVG/1.1/DTD/svg11.dtd">
<!-- Generated by graphviz version 14.0.1 (0)
 -->
<!-- Title: be_data Pages: 1 -->
<svg width="359pt" height="120pt"
 viewBox="0.00 0.00 359.00 120.00" xmlns="http://www.w3.org/2000/svg" xmlns:xlink="http://www.w3.org/1999/xlink">
<g id="graph0" class="graph" transform="scale(1 1) rotate(0) translate(4 116)">
<title>be_data</title>
<polygon fill="#0d0f14" stroke="none" points="-4,4 -4,-116 355.2,-116 355.2,4 -4,4"/>
<text xml:space="preserve" text-anchor="middle" x="175.6" y="-96.8" font-family="JetBrains Mono, monospace" font-size="14.00" fill="#c8d0e0">Data Layer</text>
<!-- db_schema -->
<g id="db_schema" class="node">
<title>db_schema</title>
<g id="a_db_schema"><a xlink:title="Alembic, 12 migrations">
<polygon fill="#0f2e22" stroke="#3dcf8e" points="101.59,-63 0,-63 0,-27 101.59,-27 101.59,-63"/>
<text xml:space="preserve" text-anchor="middle" x="50.8" y="-42" font-family="JetBrains Mono, monospace" font-size="10.00" fill="#3dcf8e">Schema migrations</text>
</a>
</g>
</g>
<!-- db_models -->
<g id="db_models" class="node">
<title>db_models</title>
<g id="a_db_models"><a xlink:title="SQLAlchemy models">
<polygon fill="#0f2e22" stroke="#3dcf8e" points="211.94,-63 137.59,-63 137.59,-27 211.94,-27 211.94,-63"/>
<text xml:space="preserve" text-anchor="middle" x="174.76" y="-42" font-family="JetBrains Mono, monospace" font-size="10.00" fill="#3dcf8e">ORM models</text>
</a>
</g>
</g>
<!-- db_schema&#45;&gt;db_models -->
<g id="edge1" class="edge">
<title>db_schema&#45;&gt;db_models</title>
<path fill="none" stroke="#c8d0e0" d="M101.76,-45C109.71,-45 117.93,-45 125.84,-45"/>
<polygon fill="#c8d0e0" stroke="#c8d0e0" points="125.62,-48.5 135.62,-45 125.62,-41.5 125.62,-48.5"/>
</g>
<!-- db_cache -->
<g id="db_cache" class="node">
<title>db_cache</title>
<g id="a_db_cache"><a xlink:title="TTL strategy in review">
<polygon fill="#092820" stroke="#4af0c4" points="351.2,-90 247.94,-90 247.94,-54 351.2,-54 351.2,-90"/>
<text xml:space="preserve" text-anchor="middle" x="299.57" y="-69" font-family="JetBrains Mono, monospace" font-size="10.00" fill="#4af0c4">Redis caching layer</text>
</a>
</g>
</g>
<!-- db_models&#45;&gt;db_cache -->
<g id="edge2" class="edge">
<title>db_models&#45;&gt;db_cache</title>
<path fill="none" stroke="#c8d0e0" d="M212.28,-53.03C220.04,-54.74 228.45,-56.58 236.87,-58.43"/>
<polygon fill="#c8d0e0" stroke="#c8d0e0" points="235.88,-61.8 246.4,-60.53 237.38,-54.96 235.88,-61.8"/>
</g>
<!-- db_replica -->
<g id="db_replica" class="node">
<title>db_replica</title>
<g id="a_db_replica"><a xlink:title="DBA approval pending">
<polygon fill="#2a1212" stroke="#f06a6a" points="338.14,-36 261,-36 261,0 338.14,0 338.14,-36"/>
<text xml:space="preserve" text-anchor="middle" x="299.57" y="-15" font-family="JetBrains Mono, monospace" font-size="10.00" fill="#f06a6a">Read replicas</text>
</a>
</g>
</g>
<!-- db_models&#45;&gt;db_replica -->
<g id="edge3" class="edge">
<title>db_models&#45;&gt;db_replica</title>
<path fill="none" stroke="#c8d0e0" d="M212.28,-36.97C223.97,-34.4 237.11,-31.51 249.55,-28.78"/>
<polygon fill="#c8d0e0" stroke="#c8d0e0" points="250.21,-32.22 259.23,-26.65 248.71,-25.38 250.21,-32.22"/>
</g>
</g>
</svg>
