<?xml version="1.0" encoding="UTF-8" standalone="no"?>
<!DOCTYPE svg PUBLIC "-//W3C//DTD SVG 1.1//EN"
 "http://www.w3.org/Graphics/SVG/1.1/DTD/svg11.dtd">
<!-- Generated by graphviz version 14.0.1 (0)
 -->
<!-- Title: frontend Pages: 1 -->
<svg width="415pt" height="89pt"
 viewBox="0.00 0.00 415.00 89.00" xmlns="http://www.w3.org/2000/svg" xmlns:xlink="http://www.w3.org/1999/xlink">
<g id="graph0" class="graph" transform="scale(1 1) rotate(0) translate(4 85)">
<title>frontend</title>
<polygon fill="#0d0f14" stroke="none" points="-4,4 -4,-85 411.11,-85 411.11,4 -4,4"/>
<text xml:space="preserve" text-anchor="middle" x="203.55" y="-65.8" font-family="JetBrains Mono, monospace" font-size="14.00" fill="#c8d0e0">Frontend Epic</text>
<!-- fe_ds -->
<g id="fe_ds" class="node">
<title>fe_ds</title>
<g id="a_fe_ds"><a xlink:title="Tokens &amp; components">
<polygon fill="#092820" stroke="#4af0c4" points="81.58,-36 0,-36 0,0 81.58,0 81.58,-36"/>
<text xml:space="preserve" text-anchor="middle" x="40.79" y="-15" font-family="JetBrains Mono, monospace" font-size="10.00" fill="#4af0c4">Design system</text>
</a>
</g>
</g>
<!-- fe_auth -->
<g id="fe_auth" class="node">
<title>fe_auth</title>
<g id="a_fe_auth"><a xlink:title="Depends on BE auth">
<polygon fill="#151b29" stroke="#3a4460" points="192.49,-59 117.58,-59 117.58,-23 192.49,-23 192.49,-59"/>
<text xml:space="preserve" text-anchor="middle" x="155.03" y="-38" font-family="JetBrains Mono, monospace" font-size="10.00" fill="#7b8baa">Auth UI flows</text>
</a>
</g>
</g>
<!-- fe_ds&#45;&gt;fe_auth -->
<g id="edge1" class="edge">
<title>fe_ds&#45;&gt;fe_auth</title>
<path fill="none" stroke="#c8d0e0" d="M81.99,-26.24C89.78,-27.83 98,-29.52 106,-31.16"/>
<polygon fill="#c8d0e0" stroke="#c8d0e0" points="105.12,-34.55 115.62,-33.13 106.52,-27.69 105.12,-34.55"/>
</g>
<!-- fe_dash -->
<g id="fe_dash" class="node">
<title>fe_dash</title>
<g id="a_fe_dash"><a xlink:title="Main product interface">
<polygon fill="#151b29" stroke="#3a4460" points="293.41,-36 228.49,-36 228.49,0 293.41,0 293.41,-36"/>
<text xml:space="preserve" text-anchor="middle" x="260.95" y="-15" font-family="JetBrains Mono, monospace" font-size="10.00" fill="#7b8baa">Dashboard</text>
</a>
</g>
</g>
<!-- fe_ds&#45;&gt;fe_dash -->
<g id="edge2" class="edge">
<title>fe_ds&#45;&gt;fe_dash</title>
<path fill="none" stroke="#c8d0e0" d="M81.89,-15.49C93.41,-14.87 105.99,-14.31 117.58,-14 150.86,-13.12 159.21,-13.01 192.49,-14 200.29,-14.23 208.59,-14.61 216.6,-15.05"/>
<polygon fill="#c8d0e0" stroke="#c8d0e0" points="216.35,-18.54 226.54,-15.63 216.76,-11.55 216.35,-18.54"/>
</g>
<!-- fe_auth&#45;&gt;fe_dash -->
<g id="edge3" class="edge">
<title>fe_auth&#45;&gt;fe_dash</title>
<path fill="none" stroke="#c8d0e0" d="M192.96,-32.83C200.81,-31.09 209.16,-29.24 217.21,-27.46"/>
<polygon fill="#c8d0e0" stroke="#c8d0e0" points="217.81,-30.91 226.82,-25.33 216.3,-24.08 217.81,-30.91"/>
</g>
<!-- fe_e2e -->
<g id="fe_e2e" class="node">
<title>fe_e2e</title>
<g id="a_fe_e2e"><a xlink:title="Playwright">
<polygon fill="#151b29" stroke="#3a4460" points="407.11,-36 329.41,-36 329.41,0 407.11,0 407.11,-36"/>
<text xml:space="preserve" text-anchor="middle" x="368.26" y="-15" font-family="JetBrains Mono, monospace" font-size="10.00" fill="#7b8baa">E2E test suite</text>
</a>
</g>
</g>
<!-- fe_dash&#45;&gt;fe_e2e -->
<g id="edge4" class="edge">
<title>fe_dash&#45;&gt;fe_e2e</title>
<path fill="none" stroke="#c8d0e0" d="M293.83,-18C301.4,-18 309.65,-18 317.81,-18"/>
<polygon fill="#c8d0e0" stroke="#c8d0e0" points="317.66,-21.5 327.66,-18 317.66,-14.5 317.66,-21.5"/>
</g>
</g>
</svg>
