<?xml version="1.0" encoding="UTF-8" standalone="no"?>
<!DOCTYPE svg PUBLIC "-//W3C//DTD SVG 1.1//EN"
 "http://www.w3.org/Graphics/SVG/1.1/DTD/svg11.dtd">
<!-- Generated by graphviz version 2.43.0 (0)
 -->
<!-- Title: frontend Pages: 1 -->
<svg width="478pt" height="90pt"
 viewBox="0.00 0.00 478.00 90.00" xmlns="http://www.w3.org/2000/svg" xmlns:xlink="http://www.w3.org/1999/xlink">
<g id="graph0" class="graph" transform="scale(1 1) rotate(0) translate(4 86)">
<title>frontend</title>
<polygon fill="#0d0f14" stroke="transparent" points="-4,4 -4,-86 474,-86 474,4 -4,4"/>
<text text-anchor="middle" x="235" y="-66.8" font-family="JetBrains Mono, monospace" font-size="14.00" fill="#c8d0e0">Frontend</text>
<!-- fe_ds -->
<g id="fe_ds" class="node">
<title>fe_ds</title>
<g id="a_fe_ds"><a xlink:title="Tokens &amp; components">
<polygon fill="#092820" stroke="#4af0c4" points="95,-36 0,-36 0,0 95,0 95,-36"/>
<text text-anchor="middle" x="47.5" y="-15.5" font-family="JetBrains Mono, monospace" font-size="10.00" fill="#4af0c4">Design system</text>
</a>
</g>
</g>
<!-- fe_auth -->
<g id="fe_auth" class="node">
<title>fe_auth</title>
<g id="a_fe_auth"><a xlink:title="Blocked until BE auth is available">
<polygon fill="#151b29" stroke="#3a4460" points="226,-59 131,-59 131,-23 226,-23 226,-59"/>
<text text-anchor="middle" x="178.5" y="-38.5" font-family="JetBrains Mono, monospace" font-size="10.00" fill="#7b8baa">Auth UI flows</text>
</a>
</g>
</g>
<!-- fe_ds&#45;&gt;fe_auth -->
<g id="edge1" class="edge">
<title>fe_ds&#45;&gt;fe_auth</title>
<path fill="none" stroke="#c8d0e0" d="M95.07,-26.3C103.48,-27.8 112.32,-29.38 120.97,-30.92"/>
<polygon fill="#c8d0e0" stroke="#c8d0e0" points="120.54,-34.4 131,-32.71 121.77,-27.51 120.54,-34.4"/>
</g>
<!-- fe_dash -->
<g id="fe_dash" class="node">
<title>fe_dash</title>
<g id="a_fe_dash"><a xlink:title="Main product interface">
<polygon fill="#151b29" stroke="#3a4460" points="333,-36 262,-36 262,0 333,0 333,-36"/>
<text text-anchor="middle" x="297.5" y="-15.5" font-family="JetBrains Mono, monospace" font-size="10.00" fill="#7b8baa">Dashboard</text>
</a>
</g>
</g>
<!-- fe_ds&#45;&gt;fe_dash -->
<g id="edge2" class="edge">
<title>fe_ds&#45;&gt;fe_dash</title>
<path fill="none" stroke="#c8d0e0" d="M95.17,-15.34C106.87,-14.79 119.39,-14.28 131,-14 173.21,-12.98 183.79,-12.8 226,-14 234.28,-14.23 243.09,-14.62 251.59,-15.07"/>
<polygon fill="#c8d0e0" stroke="#c8d0e0" points="251.55,-18.57 261.73,-15.64 251.94,-11.58 251.55,-18.57"/>
</g>
<!-- fe_auth&#45;&gt;fe_dash -->
<g id="edge3" class="edge">
<title>fe_auth&#45;&gt;fe_dash</title>
<path fill="none" stroke="#c8d0e0" d="M226.08,-31.84C234.6,-30.17 243.46,-28.43 251.92,-26.76"/>
<polygon fill="#c8d0e0" stroke="#c8d0e0" points="252.85,-30.15 261.98,-24.79 251.49,-23.28 252.85,-30.15"/>
</g>
<!-- fe_e2e -->
<g id="fe_e2e" class="node">
<title>fe_e2e</title>
<g id="a_fe_e2e"><a xlink:title="Playwright">
<polygon fill="#151b29" stroke="#3a4460" points="470,-36 369,-36 369,0 470,0 470,-36"/>
<text text-anchor="middle" x="419.5" y="-15.5" font-family="JetBrains Mono, monospace" font-size="10.00" fill="#7b8baa">E2E test suite</text>
</a>
</g>
</g>
<!-- fe_dash&#45;&gt;fe_e2e -->
<g id="edge4" class="edge">
<title>fe_dash&#45;&gt;fe_e2e</title>
<path fill="none" stroke="#c8d0e0" d="M333.21,-18C341.17,-18 349.86,-18 358.54,-18"/>
<polygon fill="#c8d0e0" stroke="#c8d0e0" points="358.7,-21.5 368.7,-18 358.7,-14.5 358.7,-21.5"/>
</g>
</g>
</svg>
