<?xml version="1.0" encoding="UTF-8" standalone="no"?>
<!DOCTYPE svg PUBLIC "-//W3C//DTD SVG 1.1//EN"
 "http://www.w3.org/Graphics/SVG/1.1/DTD/svg11.dtd">
<!-- Generated by graphviz version 14.0.1 (0)
 -->
<!-- Title: infra Pages: 1 -->
<svg width="383pt" height="147pt"
 viewBox="0.00 0.00 383.00 147.00" xmlns="http://www.w3.org/2000/svg" xmlns:xlink="http://www.w3.org/1999/xlink">
<g id="graph0" class="graph" transform="scale(1 1) rotate(0) translate(4 143)">
<title>infra</title>
<polygon fill="#0d0f14" stroke="none" points="-4,4 -4,-143 379.11,-143 379.11,4 -4,4"/>
<text xml:space="preserve" text-anchor="middle" x="187.56" y="-123.8" font-family="JetBrains Mono, monospace" font-size="14.00" fill="#c8d0e0">Infrastructure Epic</text>
<!-- infra_tf -->
<g id="infra_tf" class="node">
<title>infra_tf</title>
<g id="a_infra_tf"><a xlink:title="All base modules written">
<polygon fill="#0f2e22" stroke="#3dcf8e" points="99.36,-90 0,-90 0,-54 99.36,-54 99.36,-90"/>
<text xml:space="preserve" text-anchor="middle" x="49.68" y="-69" font-family="JetBrains Mono, monospace" font-size="10.00" fill="#3dcf8e">Terraform modules</text>
</a>
</g>
</g>
<!-- infra_ci -->
<g id="infra_ci" class="node">
<title>infra_ci</title>
<g id="a_infra_ci"><a xlink:title="GitHub Actions in progress">
<polygon fill="#092820" stroke="#4af0c4" points="224.45,-117 138.98,-117 138.98,-81 224.45,-81 224.45,-117"/>
<text xml:space="preserve" text-anchor="middle" x="181.71" y="-96" font-family="JetBrains Mono, monospace" font-size="10.00" fill="#4af0c4">CI/CD pipelines</text>
</a>
</g>
</g>
<!-- infra_tf&#45;&gt;infra_ci -->
<g id="edge2" class="edge">
<title>infra_tf&#45;&gt;infra_ci</title>
<path fill="none" stroke="#c8d0e0" d="M99.84,-82.21C108.94,-84.1 118.48,-86.08 127.69,-87.99"/>
<polygon fill="#c8d0e0" stroke="#c8d0e0" points="126.73,-91.36 137.23,-89.97 128.15,-84.51 126.73,-91.36"/>
</g>
<!-- infra_k8s -->
<g id="infra_k8s" class="node">
<title>infra_k8s</title>
<g id="a_infra_k8s"><a xlink:title="EKS prod + staging">
<polygon fill="#0f2e22" stroke="#3dcf8e" points="228.06,-63 135.36,-63 135.36,-27 228.06,-27 228.06,-63"/>
<text xml:space="preserve" text-anchor="middle" x="181.71" y="-42" font-family="JetBrains Mono, monospace" font-size="10.00" fill="#3dcf8e">K8s cluster setup</text>
</a>
</g>
</g>
<!-- infra_tf&#45;&gt;infra_k8s -->
<g id="edge1" class="edge">
<title>infra_tf&#45;&gt;infra_k8s</title>
<path fill="none" stroke="#c8d0e0" d="M99.84,-61.79C107.66,-60.17 115.81,-58.48 123.79,-56.82"/>
<polygon fill="#c8d0e0" stroke="#c8d0e0" points="124.35,-60.28 133.43,-54.82 122.93,-53.42 124.35,-60.28"/>
</g>
<!-- infra_obs -->
<g id="infra_obs" class="node">
<title>infra_obs</title>
<g id="a_infra_obs"><a xlink:title="Prometheus + Grafana">
<polygon fill="#151b29" stroke="#3a4460" points="369.55,-90 269.63,-90 269.63,-54 369.55,-54 369.55,-90"/>
<text xml:space="preserve" text-anchor="middle" x="319.59" y="-69" font-family="JetBrains Mono, monospace" font-size="10.00" fill="#7b8baa">Observability stack</text>
</a>
</g>
</g>
<!-- infra_k8s&#45;&gt;infra_obs -->
<g id="edge3" class="edge">
<title>infra_k8s&#45;&gt;infra_obs</title>
<path fill="none" stroke="#c8d0e0" d="M228.33,-54.07C237.97,-55.98 248.28,-58.03 258.36,-60.03"/>
<polygon fill="#c8d0e0" stroke="#c8d0e0" points="257.62,-63.45 268.11,-61.97 258.98,-56.59 257.62,-63.45"/>
</g>
<!-- infra_sec -->
<g id="infra_sec" class="node">
<title>infra_sec</title>
<g id="a_infra_sec"><a xlink:title="Waiting on security review">
<polygon fill="#2a1212" stroke="#f06a6a" points="375.11,-36 264.06,-36 264.06,0 375.11,0 375.11,-36"/>
<text xml:space="preserve" text-anchor="middle" x="319.59" y="-15" font-family="JetBrains Mono, monospace" font-size="10.00" fill="#f06a6a">Secrets management</text>
</a>
</g>
</g>
<!-- infra_k8s&#45;&gt;infra_sec -->
<g id="edge4" class="edge">
<title>infra_k8s&#45;&gt;infra_sec</title>
<path fill="none" stroke="#c8d0e0" d="M228.33,-35.93C236.18,-34.38 244.47,-32.73 252.72,-31.09"/>
<polygon fill="#c8d0e0" stroke="#c8d0e0" points="253.29,-34.54 262.42,-29.16 251.92,-27.68 253.29,-34.54"/>
</g>
</g>
</svg>
