<?xml version="1.0" encoding="UTF-8" standalone="no"?>
<!DOCTYPE svg PUBLIC "-//W3C//DTD SVG 1.1//EN"
 "http://www.w3.org/Graphics/SVG/1.1/DTD/svg11.dtd">
<!-- Generated by graphviz version 2.43.0 (0)
 -->
<!-- Title: backend Pages: 1 -->
<svg width="697pt" height="212pt"
 viewBox="0.00 0.00 697.00 212.00" xmlns="http://www.w3.org/2000/svg" xmlns:xlink="http://www.w3.org/1999/xlink">
<g id="graph0" class="graph" transform="scale(1 1) rotate(0) translate(4 208)">
<title>backend</title>
<polygon fill="#0d0f14" stroke="transparent" points="-4,4 -4,-208 693,-208 693,4 -4,4"/>
<text text-anchor="middle" x="344.5" y="-188.8" font-family="JetBrains Mono, monospace" font-size="14.00" fill="#c8d0e0">Backend Services</text>
<g id="clust1" class="cluster">
<title>cluster_be_data</title>
<g id="a_clust1"><a xlink:href="be_data.html" xlink:title="Data layer" target="_self">
<polygon fill="#13161e" stroke="#4af0c4" points="266,-8 266,-137 681,-137 681,-8 266,-8"/>
<text text-anchor="middle" x="473.5" y="-121.8" font-family="JetBrains Mono, monospace" font-size="14.00" fill="#c8d0e0">Data layer</text>
</a>
</g>
</g>
<!-- be_auth -->
<g id="be_auth" class="node">
<title>be_auth</title>
<g id="a_be_auth"><a xlink:title="JWT + OAuth2 complete">
<polygon fill="#0f2e22" stroke="#3dcf8e" points="89,-152 0,-152 0,-116 89,-116 89,-152"/>
<text text-anchor="middle" x="44.5" y="-131.5" font-family="JetBrains Mono, monospace" font-size="10.00" fill="#3dcf8e">Auth service</text>
</a>
</g>
</g>
<!-- be_api -->
<g id="be_api" class="node">
<title>be_api</title>
<g id="a_be_api"><a xlink:title="50% endpoints done">
<polygon fill="#092820" stroke="#4af0c4" points="238,-152 125,-152 125,-116 238,-116 238,-152"/>
<text text-anchor="middle" x="181.5" y="-131.5" font-family="JetBrains Mono, monospace" font-size="10.00" fill="#4af0c4">REST API gateway</text>
</a>
</g>
</g>
<!-- be_auth&#45;&gt;be_api -->
<g id="edge4" class="edge">
<title>be_auth&#45;&gt;be_api</title>
<path fill="none" stroke="#c8d0e0" d="M89.33,-134C97.41,-134 106.01,-134 114.57,-134"/>
<polygon fill="#c8d0e0" stroke="#c8d0e0" points="114.57,-137.5 124.57,-134 114.57,-130.5 114.57,-137.5"/>
</g>
<!-- be_grpc -->
<g id="be_grpc" class="node">
<title>be_grpc</title>
<g id="a_be_grpc"><a xlink:title="Schema defined, impl pending">
<polygon fill="#151b29" stroke="#3a4460" points="393,-181 274,-181 274,-145 393,-145 393,-181"/>
<text text-anchor="middle" x="333.5" y="-160.5" font-family="JetBrains Mono, monospace" font-size="10.00" fill="#7b8baa">gRPC internal bus</text>
</a>
</g>
</g>
<!-- be_api&#45;&gt;be_grpc -->
<g id="edge5" class="edge">
<title>be_api&#45;&gt;be_grpc</title>
<path fill="none" stroke="#c8d0e0" d="M238.35,-144.8C246.68,-146.41 255.33,-148.08 263.88,-149.73"/>
<polygon fill="#c8d0e0" stroke="#c8d0e0" points="263.36,-153.2 273.84,-151.66 264.68,-146.32 263.36,-153.2"/>
</g>
<!-- be_data -->
<!-- be_api&#45;&gt;be_data -->
<g id="edge6" class="edge">
<title>be_api&#45;&gt;be_data</title>
<path fill="none" stroke="#c8d0e0" d="M238.35,-123.2C244.13,-122.09 250.06,-120.94 256.01,-119.79"/>
<polygon fill="#c8d0e0" stroke="#c8d0e0" points="256.85,-123.19 266,-117.86 255.52,-116.32 256.85,-123.19"/>
</g>
<!-- db_schema -->
<g id="db_schema" class="node">
<title>db_schema</title>
<g id="a_db_schema"><a xlink:title="Alembic, 12 migrations">
<polygon fill="#0f2e22" stroke="#3dcf8e" points="393,-69 274,-69 274,-33 393,-33 393,-69"/>
<text text-anchor="middle" x="333.5" y="-48.5" font-family="JetBrains Mono, monospace" font-size="10.00" fill="#3dcf8e">Schema migrations</text>
</a>
</g>
</g>
<!-- db_models -->
<g id="db_models" class="node">
<title>db_models</title>
<g id="a_db_models"><a xlink:title="SQLAlchemy models">
<polygon fill="#0f2e22" stroke="#3dcf8e" points="506,-69 429,-69 429,-33 506,-33 506,-69"/>
<text text-anchor="middle" x="467.5" y="-48.5" font-family="JetBrains Mono, monospace" font-size="10.00" fill="#3dcf8e">ORM models</text>
</a>
</g>
</g>
<!-- db_schema&#45;&gt;db_models -->
<g id="edge1" class="edge">
<title>db_schema&#45;&gt;db_models</title>
<path fill="none" stroke="#c8d0e0" d="M393.17,-51C401.69,-51 410.37,-51 418.65,-51"/>
<polygon fill="#c8d0e0" stroke="#c8d0e0" points="418.86,-54.5 428.86,-51 418.86,-47.5 418.86,-54.5"/>
</g>
<!-- db_cache -->
<g id="db_cache" class="node">
<title>db_cache</title>
<g id="a_db_cache"><a xlink:title="TTL strategy in review">
<polygon fill="#092820" stroke="#4af0c4" points="673,-52 542,-52 542,-16 673,-16 673,-52"/>
<text text-anchor="middle" x="607.5" y="-31.5" font-family="JetBrains Mono, monospace" font-size="10.00" fill="#4af0c4">Redis caching layer</text>
</a>
</g>
</g>
<!-- db_models&#45;&gt;db_cache -->
<g id="edge2" class="edge">
<title>db_models&#45;&gt;db_cache</title>
<path fill="none" stroke="#c8d0e0" d="M506.21,-46.35C514.21,-45.37 522.92,-44.3 531.76,-43.21"/>
<polygon fill="#c8d0e0" stroke="#c8d0e0" points="532.27,-46.67 541.77,-41.97 531.42,-39.72 532.27,-46.67"/>
</g>
<!-- db_replica -->
<g id="db_replica" class="node">
<title>db_replica</title>
<g id="a_db_replica"><a xlink:title="DBA approval pending">
<polygon fill="#2a1212" stroke="#f06a6a" points="655,-106 560,-106 560,-70 655,-70 655,-106"/>
<text text-anchor="middle" x="607.5" y="-85.5" font-family="JetBrains Mono, monospace" font-size="10.00" fill="#f06a6a">Read replicas</text>
</a>
</g>
</g>
<!-- db_models&#45;&gt;db_replica -->
<g id="edge3" class="edge">
<title>db_models&#45;&gt;db_replica</title>
<path fill="none" stroke="#c8d0e0" d="M506.21,-61.11C519.7,-64.73 535.21,-68.88 549.93,-72.83"/>
<polygon fill="#c8d0e0" stroke="#c8d0e0" points="549.41,-76.32 559.97,-75.53 551.22,-69.55 549.41,-76.32"/>
</g>
</g>
</svg>
