<?xml version="1.0" encoding="UTF-8" standalone="no"?>
<!DOCTYPE svg PUBLIC "-//W3C//DTD SVG 1.1//EN"
 "http://www.w3.org/Graphics/SVG/1.1/DTD/svg11.dtd">
<!-- Generated by graphviz version 2.43.0 (0)
 -->
<!-- Title: be_data Pages: 1 -->
<svg width="407pt" height="121pt"
 viewBox="0.00 0.00 407.00 121.00" xmlns="http://www.w3.org/2000/svg" xmlns:xlink="http://www.w3.org/1999/xlink">
<g id="graph0" class="graph" transform="scale(1 1) rotate(0) translate(4 117)">
<title>be_data</title>
<polygon fill="#0d0f14" stroke="transparent" points="-4,4 -4,-117 403,-117 403,4 -4,4"/>
<text text-anchor="middle" x="199.5" y="-97.8" font-family="JetBrains Mono, monospace" font-size="14.00" fill="#c8d0e0">Data layer</text>
<!-- db_schema -->
<g id="db_schema" class="node">
<title>db_schema</title>
<g id="a_db_schema"><a xlink:title="Alembic, 12 migrations">
<polygon fill="#0f2e22" stroke="#3dcf8e" points="119,-63 0,-63 0,-27 119,-27 119,-63"/>
<text text-anchor="middle" x="59.5" y="-42.5" font-family="JetBrains Mono, monospace" font-size="10.00" fill="#3dcf8e">Schema migrations</text>
</a>
</g>
</g>
<!-- db_models -->
<g id="db_models" class="node">
<title>db_models</title>
<g id="a_db_models"><a xlink:title="SQLAlchemy models">
<polygon fill="#0f2e22" stroke="#3dcf8e" points="232,-63 155,-63 155,-27 232,-27 232,-63"/>
<text text-anchor="middle" x="193.5" y="-42.5" font-family="JetBrains Mono, monospace" font-size="10.00" fill="#3dcf8e">ORM models</text>
</a>
</g>
</g>
<!-- db_schema&#45;&gt;db_models -->
<g id="edge1" class="edge">
<title>db_schema&#45;&gt;db_models</title>
<path fill="none" stroke="#c8d0e0" d="M119.17,-45C127.69,-45 136.37,-45 144.65,-45"/>
<polygon fill="#c8d0e0" stroke="#c8d0e0" points="144.86,-48.5 154.86,-45 144.86,-41.5 144.86,-48.5"/>
</g>
<!-- db_cache -->
<g id="db_cache" class="node">
<title>db_cache</title>
<g id="a_db_cache"><a xlink:title="TTL strategy in review">
<polygon fill="#092820" stroke="#4af0c4" points="399,-90 268,-90 268,-54 399,-54 399,-90"/>
<text text-anchor="middle" x="333.5" y="-69.5" font-family="JetBrains Mono, monospace" font-size="10.00" fill="#4af0c4">Redis caching layer</text>
</a>
</g>
</g>
<!-- db_models&#45;&gt;db_cache -->
<g id="edge2" class="edge">
<title>db_models&#45;&gt;db_cache</title>
<path fill="none" stroke="#c8d0e0" d="M232.21,-52.38C240.21,-53.94 248.92,-55.65 257.76,-57.38"/>
<polygon fill="#c8d0e0" stroke="#c8d0e0" points="257.28,-60.85 267.77,-59.34 258.63,-53.98 257.28,-60.85"/>
</g>
<!-- db_replica -->
<g id="db_replica" class="node">
<title>db_replica</title>
<g id="a_db_replica"><a xlink:title="DBA approval pending">
<polygon fill="#2a1212" stroke="#f06a6a" points="381,-36 286,-36 286,0 381,0 381,-36"/>
<text text-anchor="middle" x="333.5" y="-15.5" font-family="JetBrains Mono, monospace" font-size="10.00" fill="#f06a6a">Read replicas</text>
</a>
</g>
</g>
<!-- db_models&#45;&gt;db_replica -->
<g id="edge3" class="edge">
<title>db_models&#45;&gt;db_replica</title>
<path fill="none" stroke="#c8d0e0" d="M232.21,-37.62C245.7,-34.98 261.21,-31.95 275.93,-29.07"/>
<polygon fill="#c8d0e0" stroke="#c8d0e0" points="276.83,-32.46 285.97,-27.1 275.49,-25.59 276.83,-32.46"/>
</g>
</g>
</svg>
