<?xml version="1.0" encoding="UTF-8" standalone="no"?>
<!DOCTYPE svg PUBLIC "-//W3C//DTD SVG 1.1//EN"
 "http://www.w3.org/Graphics/SVG/1.1/DTD/svg11.dtd">
<!-- Generated by graphviz version 2.43.0 (0)
 -->
<!-- Title: frontend Pages: 1 -->
<svg width="478pt" height="148pt"
 viewBox="0.00 0.00 478.00 148.00" xmlns="http://www.w3.org/2000/svg" xmlns:xlink="http://www.w3.org/1999/xlink">
<g id="graph0" class="graph" transform="scale(1 1) rotate(0) translate(4 144)">
<title>frontend</title>
<polygon fill="#0d0f14" stroke="transparent" points="-4,4 -4,-144 474,-144 474,4 -4,4"/>
<text text-anchor="middle" x="235" y="-124.8" font-family="JetBrains Mono, monospace" font-size="14.00" fill="#c8d0e0">Frontend</text>
<!-- fe_ds -->
<g id="fe_ds" class="node">
<title>fe_ds</title>
<g id="a_fe_ds"><a xlink:title="Tokens &amp; components">
<polygon fill="#092820" stroke="#4af0c4" points="95,-67 0,-67 0,-31 95,-31 95,-67"/>
<text text-anchor="middle" x="47.5" y="-46.5" font-family="JetBrains Mono, monospace" font-size="10.00" fill="#4af0c4">Design system</text>
</a>
</g>
</g>
<!-- fe_auth -->
<g id="fe_auth" class="node">
<title>fe_auth</title>
<g id="a_fe_auth"><a xlink:title="Blocked until BE auth is available">
<polygon fill="#151b29" stroke="#3a4460" points="226,-44 131,-44 131,-8 226,-8 226,-44"/>
<text text-anchor="middle" x="178.5" y="-23.5" font-family="JetBrains Mono, monospace" font-size="10.00" fill="#7b8baa">Auth UI flows</text>
</a>
</g>
</g>
<!-- fe_ds&#45;&gt;fe_auth -->
<g id="edge1" class="edge">
<title>fe_ds&#45;&gt;fe_auth</title>
<path fill="none" stroke="#c8d0e0" d="M95.07,-40.7C103.48,-39.2 112.32,-37.62 120.97,-36.08"/>
<polygon fill="#c8d0e0" stroke="#c8d0e0" points="121.77,-39.49 131,-34.29 120.54,-32.6 121.77,-39.49"/>
</g>
<!-- fe_dash -->
<g id="fe_dash" class="node">
<title>fe_dash</title>
<g id="a_fe_dash"><a xlink:title="Main product interface">
<polygon fill="#151b29" stroke="#3a4460" points="333,-90 262,-90 262,-54 333,-54 333,-90"/>
<text text-anchor="middle" x="297.5" y="-69.5" font-family="JetBrains Mono, monospace" font-size="10.00" fill="#7b8baa">Dashboard</text>
</a>
</g>
</g>
<!-- fe_ds&#45;&gt;fe_dash -->
<g id="edge2" class="edge">
<title>fe_ds&#45;&gt;fe_dash</title>
<path fill="none" stroke="#c8d0e0" d="M95.15,-53.33C139.96,-57.48 207.22,-63.72 251.48,-67.82"/>
<polygon fill="#c8d0e0" stroke="#c8d0e0" points="251.38,-71.33 261.66,-68.77 252.03,-64.36 251.38,-71.33"/>
</g>
<!-- fe_auth&#45;&gt;fe_dash -->
<g id="edge3" class="edge">
<title>fe_auth&#45;&gt;fe_dash</title>
<path fill="none" stroke="#c8d0e0" d="M225.41,-44.05C234.34,-47.56 243.68,-51.23 252.55,-54.72"/>
<polygon fill="#c8d0e0" stroke="#c8d0e0" points="251.36,-58.01 261.94,-58.41 253.92,-51.5 251.36,-58.01"/>
</g>
<!-- __ghost__root__backend__be_auth -->
<g id="node5" class="node">
<title>__ghost__root__backend__be_auth</title>
<g id="a_node5"><a xlink:title="root::backend::be_auth">
<polygon fill="#0d0f14" stroke="#c8d0e0" stroke-dasharray="5,2" points="327,-36 268,-36 268,0 327,0 327,-36"/>
<text text-anchor="middle" x="297.5" y="-15.5" font-family="JetBrains Mono, monospace" font-size="10.00" fill="#c8d0e0">be_auth</text>
</a>
</g>
</g>
<!-- fe_auth&#45;&gt;__ghost__root__backend__be_auth -->
<g id="edge5" class="edge">
<title>fe_auth&#45;&gt;__ghost__root__backend__be_auth</title>
<path fill="none" stroke="#c8d0e0" d="M226.08,-22.82C236.58,-22.1 247.61,-21.34 257.75,-20.65"/>
<polygon fill="#c8d0e0" stroke="#c8d0e0" points="258.19,-24.13 267.93,-19.95 257.72,-17.14 258.19,-24.13"/>
</g>
<!-- fe_e2e -->
<g id="fe_e2e" class="node">
<title>fe_e2e</title>
<g id="a_fe_e2e"><a xlink:title="Playwright">
<polygon fill="#151b29" stroke="#3a4460" points="470,-117 369,-117 369,-81 470,-81 470,-117"/>
<text text-anchor="middle" x="419.5" y="-96.5" font-family="JetBrains Mono, monospace" font-size="10.00" fill="#7b8baa">E2E test suite</text>
</a>
</g>
</g>
<!-- fe_dash&#45;&gt;fe_e2e -->
<g id="edge4" class="edge">
<title>fe_dash&#45;&gt;fe_e2e</title>
<path fill="none" stroke="#c8d0e0" d="M333.21,-79.81C341.26,-81.62 350.05,-83.6 358.83,-85.57"/>
<polygon fill="#c8d0e0" stroke="#c8d0e0" points="358.17,-89.01 368.7,-87.79 359.71,-82.18 358.17,-89.01"/>
</g>
<!-- __ghost__root__backend__be_api -->
<g id="node6" class="node">
<title>__ghost__root__backend__be_api</title>
<g id="a_node6"><a xlink:title="root::backend::be_api">
<polygon fill="#0d0f14" stroke="#c8d0e0" stroke-dasharray="5,2" points="446.5,-63 392.5,-63 392.5,-27 446.5,-27 446.5,-63"/>
<text text-anchor="middle" x="419.5" y="-42.5" font-family="JetBrains Mono, monospace" font-size="10.00" fill="#c8d0e0">be_api</text>
</a>
</g>
</g>
<!-- fe_dash&#45;&gt;__ghost__root__backend__be_api -->
<g id="edge6" class="edge">
<title>fe_dash&#45;&gt;__ghost__root__backend__be_api</title>
<path fill="none" stroke="#c8d0e0" d="M333.21,-64.19C348.65,-60.72 366.83,-56.62 382.43,-53.11"/>
<polygon fill="#c8d0e0" stroke="#c8d0e0" points="383.27,-56.51 392.26,-50.9 381.73,-49.68 383.27,-56.51"/>
</g>
</g>
</svg>
