<?xml version="1.0" encoding="UTF-8" standalone="no"?>
<!DOCTYPE svg PUBLIC "-//W3C//DTD SVG 1.1//EN"
 "http://www.w3.org/Graphics/SVG/1.1/DTD/svg11.dtd">
<!-- Generated by graphviz version 2.43.0 (0)
 -->
<!-- Title: root Pages: 1 -->
<svg width="1198pt" height="535pt"
 viewBox="0.00 0.00 1198.00 535.00" xmlns="http://www.w3.org/2000/svg" xmlns:xlink="http://www.w3.org/1999/xlink">
<g id="graph0" class="graph" transform="scale(1 1) rotate(0) translate(4 531)">
<title>root</title>
<polygon fill="#0d0f14" stroke="transparent" points="-4,4 -4,-531 1194,-531 1194,4 -4,4"/>
<text text-anchor="middle" x="595" y="-511.8" font-family="JetBrains Mono, monospace" font-size="14.00" fill="#c8d0e0">Platform Rewrite v2</text>
<g id="clust1" class="cluster">
<title>cluster_infra</title>
<g id="a_clust1"><a xlink:href="infra.html" xlink:title="Infrastructure" target="_self">
<polygon fill="#13161e" stroke="#4af0c4" points="8,-8 8,-137 465,-137 465,-8 8,-8"/>
<text text-anchor="middle" x="236.5" y="-121.8" font-family="JetBrains Mono, monospace" font-size="14.00" fill="#c8d0e0">Infrastructure</text>
</a>
</g>
</g>
<g id="clust2" class="cluster">
<title>cluster_backend</title>
<g id="a_clust2"><a xlink:href="backend.html" xlink:title="Backend Services" target="_self">
<polygon fill="#13161e" stroke="#4af0c4" points="485,-248 485,-460 1182,-460 1182,-248 485,-248"/>
<text text-anchor="middle" x="833.5" y="-444.8" font-family="JetBrains Mono, monospace" font-size="14.00" fill="#c8d0e0">Backend Services</text>
</a>
</g>
</g>
<g id="clust3" class="cluster">
<title>cluster_be_data</title>
<g id="a_clust3"><a xlink:href="be_data.html" xlink:title="Data layer" target="_self">
<polygon fill="#13161e" stroke="#4af0c4" points="759,-300 759,-429 1174,-429 1174,-300 759,-300"/>
<text text-anchor="middle" x="966.5" y="-413.8" font-family="JetBrains Mono, monospace" font-size="14.00" fill="#c8d0e0">Data layer</text>
</a>
</g>
</g>
<g id="clust4" class="cluster">
<title>cluster_frontend</title>
<g id="a_clust4"><a xlink:href="frontend.html" xlink:title="Frontend" target="_self">
<polygon fill="#13161e" stroke="#3a4460" points="175,-145 175,-240 733,-240 733,-145 175,-145"/>
<text text-anchor="middle" x="454" y="-224.8" font-family="JetBrains Mono, monospace" font-size="14.00" fill="#c8d0e0">Frontend</text>
</a>
</g>
</g>
<!-- infra -->
<!-- backend -->
<!-- infra&#45;&gt;backend -->
<g id="edge15" class="edge">
<title>infra&#45;&gt;backend</title>
<path fill="none" stroke="#c8d0e0" d="M93.09,-137C109.83,-167.14 137.9,-212.28 171,-244 260.16,-329.44 396.75,-383.69 475.26,-409.71"/>
<polygon fill="#c8d0e0" stroke="#c8d0e0" points="474.41,-413.11 485,-412.89 476.58,-406.46 474.41,-413.11"/>
</g>
<!-- frontend -->
<!-- infra&#45;&gt;frontend -->
<g id="edge16" class="edge">
<title>infra&#45;&gt;frontend</title>
<path fill="none" stroke="#c8d0e0" d="M100.57,-137C116.52,-155.91 139.38,-179.15 166.01,-194.92"/>
<polygon fill="#c8d0e0" stroke="#c8d0e0" points="164.56,-198.12 175,-199.87 167.93,-191.98 164.56,-198.12"/>
</g>
<!-- infra_tf -->
<g id="infra_tf" class="node">
<title>infra_tf</title>
<g id="a_infra_tf"><a xlink:title="All base modules written">
<polygon fill="#0f2e22" stroke="#3dcf8e" points="135,-69 16,-69 16,-33 135,-33 135,-69"/>
<text text-anchor="middle" x="75.5" y="-48.5" font-family="JetBrains Mono, monospace" font-size="10.00" fill="#3dcf8e">Terraform modules</text>
</a>
</g>
</g>
<!-- infra_ci -->
<g id="infra_ci" class="node">
<title>infra_ci</title>
<g id="a_infra_ci"><a xlink:title="GitHub Actions in progress">
<polygon fill="#092820" stroke="#4af0c4" points="284,-52 177,-52 177,-16 284,-16 284,-52"/>
<text text-anchor="middle" x="230.5" y="-31.5" font-family="JetBrains Mono, monospace" font-size="10.00" fill="#4af0c4">CI/CD pipelines</text>
</a>
</g>
</g>
<!-- infra_tf&#45;&gt;infra_ci -->
<g id="edge2" class="edge">
<title>infra_tf&#45;&gt;infra_ci</title>
<path fill="none" stroke="#c8d0e0" d="M135.22,-44.48C145.46,-43.34 156.14,-42.15 166.49,-41"/>
<polygon fill="#c8d0e0" stroke="#c8d0e0" points="167.15,-44.45 176.7,-39.87 166.37,-37.49 167.15,-44.45"/>
</g>
<!-- infra_k8s -->
<g id="infra_k8s" class="node">
<title>infra_k8s</title>
<g id="a_infra_k8s"><a xlink:title="EKS prod + staging">
<polygon fill="#0f2e22" stroke="#3dcf8e" points="290,-106 171,-106 171,-70 290,-70 290,-106"/>
<text text-anchor="middle" x="230.5" y="-85.5" font-family="JetBrains Mono, monospace" font-size="10.00" fill="#3dcf8e">K8s cluster setup</text>
</a>
</g>
</g>
<!-- infra_tf&#45;&gt;infra_k8s -->
<g id="edge1" class="edge">
<title>infra_tf&#45;&gt;infra_k8s</title>
<path fill="none" stroke="#c8d0e0" d="M135.22,-65.2C143.64,-67.24 152.36,-69.34 160.95,-71.42"/>
<polygon fill="#c8d0e0" stroke="#c8d0e0" points="160.4,-74.89 170.94,-73.84 162.04,-68.09 160.4,-74.89"/>
</g>
<!-- infra_obs -->
<g id="infra_obs" class="node">
<title>infra_obs</title>
<g id="a_infra_obs"><a xlink:title="Prometheus + Grafana">
<polygon fill="#151b29" stroke="#3a4460" points="457,-52 326,-52 326,-16 457,-16 457,-52"/>
<text text-anchor="middle" x="391.5" y="-31.5" font-family="JetBrains Mono, monospace" font-size="10.00" fill="#7b8baa">Observability stack</text>
</a>
</g>
</g>
<!-- infra_k8s&#45;&gt;infra_obs -->
<g id="edge3" class="edge">
<title>infra_k8s&#45;&gt;infra_obs</title>
<path fill="none" stroke="#c8d0e0" d="M284.89,-69.87C298.59,-65.21 313.47,-60.16 327.61,-55.36"/>
<polygon fill="#c8d0e0" stroke="#c8d0e0" points="328.91,-58.61 337.25,-52.08 326.66,-51.99 328.91,-58.61"/>
</g>
<!-- infra_sec -->
<g id="infra_sec" class="node">
<title>infra_sec</title>
<g id="a_infra_sec"><a xlink:title="Waiting on security review">
<polygon fill="#2a1212" stroke="#f06a6a" points="454,-106 329,-106 329,-70 454,-70 454,-106"/>
<text text-anchor="middle" x="391.5" y="-85.5" font-family="JetBrains Mono, monospace" font-size="10.00" fill="#f06a6a">Secrets management</text>
</a>
</g>
</g>
<!-- infra_k8s&#45;&gt;infra_sec -->
<g id="edge4" class="edge">
<title>infra_k8s&#45;&gt;infra_sec</title>
<path fill="none" stroke="#c8d0e0" d="M290.25,-88C299.48,-88 309.1,-88 318.59,-88"/>
<polygon fill="#c8d0e0" stroke="#c8d0e0" points="318.79,-91.5 328.79,-88 318.79,-84.5 318.79,-91.5"/>
</g>
<!-- db_replica -->
<g id="db_replica" class="node">
<title>db_replica</title>
<g id="a_db_replica"><a xlink:title="DBA approval pending">
<polygon fill="#2a1212" stroke="#f06a6a" points="1148,-344 1053,-344 1053,-308 1148,-308 1148,-344"/>
<text text-anchor="middle" x="1100.5" y="-323.5" font-family="JetBrains Mono, monospace" font-size="10.00" fill="#f06a6a">Read replicas</text>
</a>
</g>
</g>
<!-- infra_sec&#45;&gt;db_replica -->
<g id="edge21" class="edge">
<title>infra_sec&#45;&gt;db_replica</title>
<path fill="none" stroke="#f06a6a" stroke-dasharray="5,2" d="M454.09,-94.57C510.97,-100.06 597.83,-107 673.5,-107 673.5,-107 673.5,-107 827.5,-107 948.64,-107 1046.38,-240.41 1083.45,-298.98"/>
<polygon fill="#f06a6a" stroke="#f06a6a" points="1080.62,-301.06 1088.87,-307.7 1086.57,-297.36 1080.62,-301.06"/>
</g>
<!-- backend&#45;&gt;frontend -->
<g id="edge17" class="edge">
<title>backend&#45;&gt;frontend</title>
<path fill="none" stroke="#c8d0e0" d="M485,-390.85C429.17,-350.58 340.53,-286.64 284.23,-246.03"/>
<polygon fill="#c8d0e0" stroke="#c8d0e0" points="286.02,-243.01 275.86,-240 281.92,-248.69 286.02,-243.01"/>
</g>
<!-- m_alpha -->
<g id="m_alpha" class="node">
<title>m_alpha</title>
<g id="a_m_alpha"><a xlink:title="Internal dogfood milestone">
<polygon fill="#151b29" stroke="#3a4460" points="722,-504 627,-504 627,-468 722,-468 722,-504"/>
<text text-anchor="middle" x="674.5" y="-483.5" font-family="JetBrains Mono, monospace" font-size="10.00" fill="#7b8baa">Alpha Release</text>
</a>
</g>
</g>
<!-- backend&#45;&gt;m_alpha -->
<g id="edge18" class="edge">
<title>backend&#45;&gt;m_alpha</title>
<path fill="none" stroke="#c8d0e0" d="M608.68,-460C611.83,-461.36 614.94,-462.7 618,-464 618.1,-464.04 618.19,-464.08 618.29,-464.12"/>
<polygon fill="#c8d0e0" stroke="#c8d0e0" points="616.82,-467.3 627.4,-467.92 619.52,-460.84 616.82,-467.3"/>
</g>
<!-- be_auth -->
<g id="be_auth" class="node">
<title>be_auth</title>
<g id="a_be_auth"><a xlink:title="JWT + OAuth2 complete">
<polygon fill="#0f2e22" stroke="#3dcf8e" points="582,-292 493,-292 493,-256 582,-256 582,-292"/>
<text text-anchor="middle" x="537.5" y="-271.5" font-family="JetBrains Mono, monospace" font-size="10.00" fill="#3dcf8e">Auth service</text>
</a>
</g>
</g>
<!-- be_api -->
<g id="be_api" class="node">
<title>be_api</title>
<g id="a_be_api"><a xlink:title="50% endpoints done">
<polygon fill="#092820" stroke="#4af0c4" points="731,-292 618,-292 618,-256 731,-256 731,-292"/>
<text text-anchor="middle" x="674.5" y="-271.5" font-family="JetBrains Mono, monospace" font-size="10.00" fill="#4af0c4">REST API gateway</text>
</a>
</g>
</g>
<!-- be_auth&#45;&gt;be_api -->
<g id="edge8" class="edge">
<title>be_auth&#45;&gt;be_api</title>
<path fill="none" stroke="#c8d0e0" d="M582.33,-274C590.41,-274 599.01,-274 607.57,-274"/>
<polygon fill="#c8d0e0" stroke="#c8d0e0" points="607.57,-277.5 617.57,-274 607.57,-270.5 607.57,-277.5"/>
</g>
<!-- be_grpc -->
<g id="be_grpc" class="node">
<title>be_grpc</title>
<g id="a_be_grpc"><a xlink:title="Schema defined, impl pending">
<polygon fill="#151b29" stroke="#3a4460" points="886,-292 767,-292 767,-256 886,-256 886,-292"/>
<text text-anchor="middle" x="826.5" y="-271.5" font-family="JetBrains Mono, monospace" font-size="10.00" fill="#7b8baa">gRPC internal bus</text>
</a>
</g>
</g>
<!-- be_api&#45;&gt;be_grpc -->
<g id="edge9" class="edge">
<title>be_api&#45;&gt;be_grpc</title>
<path fill="none" stroke="#c8d0e0" d="M731.35,-274C739.59,-274 748.15,-274 756.6,-274"/>
<polygon fill="#c8d0e0" stroke="#c8d0e0" points="756.84,-277.5 766.84,-274 756.84,-270.5 756.84,-277.5"/>
</g>
<!-- be_data -->
<!-- be_api&#45;&gt;be_data -->
<g id="edge10" class="edge">
<title>be_api&#45;&gt;be_data</title>
<path fill="none" stroke="#c8d0e0" d="M688.6,-292.17C701.89,-309.26 724.17,-334.49 750.08,-350.1"/>
<polygon fill="#c8d0e0" stroke="#c8d0e0" points="748.55,-353.25 759,-355 751.92,-347.12 748.55,-353.25"/>
</g>
<!-- db_schema -->
<g id="db_schema" class="node">
<title>db_schema</title>
<g id="a_db_schema"><a xlink:title="Alembic, 12 migrations">
<polygon fill="#0f2e22" stroke="#3dcf8e" points="886,-346 767,-346 767,-310 886,-310 886,-346"/>
<text text-anchor="middle" x="826.5" y="-325.5" font-family="JetBrains Mono, monospace" font-size="10.00" fill="#3dcf8e">Schema migrations</text>
</a>
</g>
</g>
<!-- db_models -->
<g id="db_models" class="node">
<title>db_models</title>
<g id="a_db_models"><a xlink:title="SQLAlchemy models">
<polygon fill="#0f2e22" stroke="#3dcf8e" points="999,-346 922,-346 922,-310 999,-310 999,-346"/>
<text text-anchor="middle" x="960.5" y="-325.5" font-family="JetBrains Mono, monospace" font-size="10.00" fill="#3dcf8e">ORM models</text>
</a>
</g>
</g>
<!-- db_schema&#45;&gt;db_models -->
<g id="edge5" class="edge">
<title>db_schema&#45;&gt;db_models</title>
<path fill="none" stroke="#c8d0e0" d="M886.17,-328C894.69,-328 903.37,-328 911.65,-328"/>
<polygon fill="#c8d0e0" stroke="#c8d0e0" points="911.86,-331.5 921.86,-328 911.86,-324.5 911.86,-331.5"/>
</g>
<!-- db_cache -->
<g id="db_cache" class="node">
<title>db_cache</title>
<g id="a_db_cache"><a xlink:title="TTL strategy in review">
<polygon fill="#092820" stroke="#4af0c4" points="1166,-398 1035,-398 1035,-362 1166,-362 1166,-398"/>
<text text-anchor="middle" x="1100.5" y="-377.5" font-family="JetBrains Mono, monospace" font-size="10.00" fill="#4af0c4">Redis caching layer</text>
</a>
</g>
</g>
<!-- db_models&#45;&gt;db_cache -->
<g id="edge6" class="edge">
<title>db_models&#45;&gt;db_cache</title>
<path fill="none" stroke="#c8d0e0" d="M999.21,-342.21C1012.5,-347.22 1027.75,-352.96 1042.29,-358.44"/>
<polygon fill="#c8d0e0" stroke="#c8d0e0" points="1041.11,-361.74 1051.71,-361.99 1043.58,-355.19 1041.11,-361.74"/>
</g>
<!-- db_models&#45;&gt;db_replica -->
<g id="edge7" class="edge">
<title>db_models&#45;&gt;db_replica</title>
<path fill="none" stroke="#c8d0e0" d="M999.21,-327.45C1012.7,-327.26 1028.21,-327.03 1042.93,-326.82"/>
<polygon fill="#c8d0e0" stroke="#c8d0e0" points="1043.02,-330.32 1052.97,-326.67 1042.92,-323.32 1043.02,-330.32"/>
</g>
<!-- frontend&#45;&gt;m_alpha -->
<g id="edge19" class="edge">
<title>frontend&#45;&gt;m_alpha</title>
<path fill="none" stroke="#c8d0e0" d="M250.62,-240C287.4,-297.97 374.24,-418.57 485,-464 526.79,-481.14 577.89,-486.23 616.34,-487.27"/>
<polygon fill="#c8d0e0" stroke="#c8d0e0" points="616.77,-490.77 626.83,-487.46 616.89,-483.77 616.77,-490.77"/>
</g>
<!-- fe_ds -->
<g id="fe_ds" class="node">
<title>fe_ds</title>
<g id="a_fe_ds"><a xlink:title="Tokens &amp; components">
<polygon fill="#092820" stroke="#4af0c4" points="278,-189 183,-189 183,-153 278,-153 278,-189"/>
<text text-anchor="middle" x="230.5" y="-168.5" font-family="JetBrains Mono, monospace" font-size="10.00" fill="#4af0c4">Design system</text>
</a>
</g>
</g>
<!-- fe_auth -->
<g id="fe_auth" class="node">
<title>fe_auth</title>
<g id="a_fe_auth"><a xlink:title="Blocked until BE auth is available">
<polygon fill="#151b29" stroke="#3a4460" points="439,-209 344,-209 344,-173 439,-173 439,-209"/>
<text text-anchor="middle" x="391.5" y="-188.5" font-family="JetBrains Mono, monospace" font-size="10.00" fill="#7b8baa">Auth UI flows</text>
</a>
</g>
</g>
<!-- fe_ds&#45;&gt;fe_auth -->
<g id="edge11" class="edge">
<title>fe_ds&#45;&gt;fe_auth</title>
<path fill="none" stroke="#c8d0e0" d="M278.35,-176.89C295.81,-179.09 315.83,-181.61 334.07,-183.9"/>
<polygon fill="#c8d0e0" stroke="#c8d0e0" points="333.63,-187.37 343.99,-185.15 334.5,-180.43 333.63,-187.37"/>
</g>
<!-- fe_dash -->
<g id="fe_dash" class="node">
<title>fe_dash</title>
<g id="a_fe_dash"><a xlink:title="Main product interface">
<polygon fill="#151b29" stroke="#3a4460" points="573,-209 502,-209 502,-173 573,-173 573,-209"/>
<text text-anchor="middle" x="537.5" y="-188.5" font-family="JetBrains Mono, monospace" font-size="10.00" fill="#7b8baa">Dashboard</text>
</a>
</g>
</g>
<!-- fe_ds&#45;&gt;fe_dash -->
<g id="edge12" class="edge">
<title>fe_ds&#45;&gt;fe_dash</title>
<path fill="none" stroke="#c8d0e0" d="M278.01,-163.92C325.44,-158.03 400.96,-152.31 465,-164 474.11,-165.66 483.56,-168.42 492.49,-171.56"/>
<polygon fill="#c8d0e0" stroke="#c8d0e0" points="491.35,-174.87 501.95,-175.08 493.79,-168.31 491.35,-174.87"/>
</g>
<!-- fe_auth&#45;&gt;be_auth -->
<g id="edge22" class="edge">
<title>fe_auth&#45;&gt;be_auth</title>
<path fill="none" stroke="#c8d0e0" d="M423.75,-209.01C444.92,-221.22 473.11,-237.46 496.01,-250.66"/>
<polygon fill="#c8d0e0" stroke="#c8d0e0" points="494.41,-253.78 504.82,-255.74 497.9,-247.71 494.41,-253.78"/>
</g>
<!-- fe_auth&#45;&gt;fe_dash -->
<g id="edge13" class="edge">
<title>fe_auth&#45;&gt;fe_dash</title>
<path fill="none" stroke="#c8d0e0" d="M439.25,-191C456.12,-191 475.1,-191 491.79,-191"/>
<polygon fill="#c8d0e0" stroke="#c8d0e0" points="491.84,-194.5 501.84,-191 491.84,-187.5 491.84,-194.5"/>
</g>
<!-- fe_dash&#45;&gt;be_api -->
<g id="edge23" class="edge">
<title>fe_dash&#45;&gt;be_api</title>
<path fill="none" stroke="#c8d0e0" d="M564.25,-209.04C579.62,-219.59 599.67,-232.97 618,-244 621.85,-246.32 625.9,-248.66 629.97,-250.97"/>
<polygon fill="#c8d0e0" stroke="#c8d0e0" points="628.44,-254.12 638.88,-255.93 631.84,-248.01 628.44,-254.12"/>
</g>
<!-- fe_e2e -->
<g id="fe_e2e" class="node">
<title>fe_e2e</title>
<g id="a_fe_e2e"><a xlink:title="Playwright">
<polygon fill="#151b29" stroke="#3a4460" points="725,-209 624,-209 624,-173 725,-173 725,-209"/>
<text text-anchor="middle" x="674.5" y="-188.5" font-family="JetBrains Mono, monospace" font-size="10.00" fill="#7b8baa">E2E test suite</text>
</a>
</g>
</g>
<!-- fe_dash&#45;&gt;fe_e2e -->
<g id="edge14" class="edge">
<title>fe_dash&#45;&gt;fe_e2e</title>
<path fill="none" stroke="#c8d0e0" d="M573.27,-191C585.53,-191 599.7,-191 613.45,-191"/>
<polygon fill="#c8d0e0" stroke="#c8d0e0" points="613.84,-194.5 623.84,-191 613.84,-187.5 613.84,-194.5"/>
</g>
<!-- m_beta -->
<g id="m_beta" class="node">
<title>m_beta</title>
<g id="a_m_beta"><a xlink:title="External customer access">
<polygon fill="#151b29" stroke="#3a4460" points="868,-504 785,-504 785,-468 868,-468 868,-504"/>
<text text-anchor="middle" x="826.5" y="-483.5" font-family="JetBrains Mono, monospace" font-size="10.00" fill="#7b8baa">Public Beta</text>
</a>
</g>
</g>
<!-- m_alpha&#45;&gt;m_beta -->
<g id="edge20" class="edge">
<title>m_alpha&#45;&gt;m_beta</title>
<path fill="none" stroke="#c8d0e0" d="M722.14,-486C738.8,-486 757.66,-486 774.66,-486"/>
<polygon fill="#c8d0e0" stroke="#c8d0e0" points="774.97,-489.5 784.97,-486 774.97,-482.5 774.97,-489.5"/>
</g>
</g>
</svg>
