<?xml version="1.0" encoding="UTF-8" standalone="no"?>
<!DOCTYPE svg PUBLIC "-//W3C//DTD SVG 1.1//EN"
 "http://www.w3.org/Graphics/SVG/1.1/DTD/svg11.dtd">
<!-- Generated by graphviz version 2.43.0 (0)
 -->
<!-- Title: infra Pages: 1 -->
<svg width="562pt" height="148pt"
 viewBox="0.00 0.00 562.00 148.00" xmlns="http://www.w3.org/2000/svg" xmlns:xlink="http://www.w3.org/1999/xlink">
<g id="graph0" class="graph" transform="scale(1 1) rotate(0) translate(4 144)">
<title>infra</title>
<polygon fill="#0d0f14" stroke="transparent" points="-4,4 -4,-144 558,-144 558,4 -4,4"/>
<text text-anchor="middle" x="277" y="-124.8" font-family="JetBrains Mono, monospace" font-size="14.00" fill="#c8d0e0">Infrastructure</text>
<!-- infra_tf -->
<g id="infra_tf" class="node">
<title>infra_tf</title>
<g id="a_infra_tf"><a xlink:title="All base modules written">
<polygon fill="#0f2e22" stroke="#3dcf8e" points="119,-90 0,-90 0,-54 119,-54 119,-90"/>
<text text-anchor="middle" x="59.5" y="-69.5" font-family="JetBrains Mono, monospace" font-size="10.00" fill="#3dcf8e">Terraform modules</text>
</a>
</g>
</g>
<!-- infra_ci -->
<g id="infra_ci" class="node">
<title>infra_ci</title>
<g id="a_infra_ci"><a xlink:title="GitHub Actions in progress">
<polygon fill="#092820" stroke="#4af0c4" points="268,-117 161,-117 161,-81 268,-81 268,-117"/>
<text text-anchor="middle" x="214.5" y="-96.5" font-family="JetBrains Mono, monospace" font-size="10.00" fill="#4af0c4">CI/CD pipelines</text>
</a>
</g>
</g>
<!-- infra_tf&#45;&gt;infra_ci -->
<g id="edge2" class="edge">
<title>infra_tf&#45;&gt;infra_ci</title>
<path fill="none" stroke="#c8d0e0" d="M119.22,-82.36C129.56,-84.19 140.37,-86.09 150.82,-87.94"/>
<polygon fill="#c8d0e0" stroke="#c8d0e0" points="150.24,-91.39 160.7,-89.68 151.46,-84.5 150.24,-91.39"/>
</g>
<!-- infra_k8s -->
<g id="infra_k8s" class="node">
<title>infra_k8s</title>
<g id="a_infra_k8s"><a xlink:title="EKS prod + staging">
<polygon fill="#0f2e22" stroke="#3dcf8e" points="274,-63 155,-63 155,-27 274,-27 274,-63"/>
<text text-anchor="middle" x="214.5" y="-42.5" font-family="JetBrains Mono, monospace" font-size="10.00" fill="#3dcf8e">K8s cluster setup</text>
</a>
</g>
</g>
<!-- infra_tf&#45;&gt;infra_k8s -->
<g id="edge1" class="edge">
<title>infra_tf&#45;&gt;infra_k8s</title>
<path fill="none" stroke="#c8d0e0" d="M119.22,-61.64C127.64,-60.15 136.36,-58.61 144.95,-57.1"/>
<polygon fill="#c8d0e0" stroke="#c8d0e0" points="145.7,-60.52 154.94,-55.33 144.48,-53.63 145.7,-60.52"/>
</g>
<!-- infra_obs -->
<g id="infra_obs" class="node">
<title>infra_obs</title>
<g id="a_infra_obs"><a xlink:title="Prometheus + Grafana">
<polygon fill="#151b29" stroke="#3a4460" points="441,-90 310,-90 310,-54 441,-54 441,-90"/>
<text text-anchor="middle" x="375.5" y="-69.5" font-family="JetBrains Mono, monospace" font-size="10.00" fill="#7b8baa">Observability stack</text>
</a>
</g>
</g>
<!-- infra_k8s&#45;&gt;infra_obs -->
<g id="edge3" class="edge">
<title>infra_k8s&#45;&gt;infra_obs</title>
<path fill="none" stroke="#c8d0e0" d="M274.25,-54.98C282.58,-56.39 291.24,-57.86 299.82,-59.32"/>
<polygon fill="#c8d0e0" stroke="#c8d0e0" points="299.39,-62.8 309.83,-61.02 300.56,-55.89 299.39,-62.8"/>
</g>
<!-- infra_sec -->
<g id="infra_sec" class="node">
<title>infra_sec</title>
<g id="a_infra_sec"><a xlink:title="Waiting on security review">
<polygon fill="#2a1212" stroke="#f06a6a" points="438,-36 313,-36 313,0 438,0 438,-36"/>
<text text-anchor="middle" x="375.5" y="-15.5" font-family="JetBrains Mono, monospace" font-size="10.00" fill="#f06a6a">Secrets management</text>
</a>
</g>
</g>
<!-- infra_k8s&#45;&gt;infra_sec -->
<g id="edge4" class="edge">
<title>infra_k8s&#45;&gt;infra_sec</title>
<path fill="none" stroke="#c8d0e0" d="M274.25,-35.02C283.58,-33.44 293.31,-31.79 302.89,-30.16"/>
<polygon fill="#c8d0e0" stroke="#c8d0e0" points="303.52,-33.6 312.79,-28.48 302.35,-26.7 303.52,-33.6"/>
</g>
<!-- __ghost__root__backend__be_data__db_replica -->
<g id="node6" class="node">
<title>__ghost__root__backend__be_data__db_replica</title>
<g id="a_node6"><a xlink:title="root::backend::be_data::db_replica">
<polygon fill="#0d0f14" stroke="#c8d0e0" stroke-dasharray="5,2" points="554,-36 477,-36 477,0 554,0 554,-36"/>
<text text-anchor="middle" x="515.5" y="-15.5" font-family="JetBrains Mono, monospace" font-size="10.00" fill="#c8d0e0">db_replica</text>
</a>
</g>
</g>
<!-- infra_sec&#45;&gt;__ghost__root__backend__be_data__db_replica -->
<g id="edge5" class="edge">
<title>infra_sec&#45;&gt;__ghost__root__backend__be_data__db_replica</title>
<path fill="none" stroke="#f06a6a" stroke-dasharray="5,2" d="M438.23,-18C447.83,-18 457.61,-18 466.83,-18"/>
<polygon fill="#f06a6a" stroke="#f06a6a" points="466.96,-21.5 476.96,-18 466.96,-14.5 466.96,-21.5"/>
</g>
</g>
</svg>
